<svg width="50" height="50" viewBox="0 0 50 50" fill="none" xmlns="http://www.w3.org/2000/svg">
<circle cx="25" cy="25" r="25" fill="white" fill-opacity="0.21"/>
<g clip-path="url(#clip0_4_40)">
<path d="M29.1666 36.25V32.2187C29.2057 31.722 29.1386 31.2227 28.9698 30.7539C28.801 30.2852 28.5343 29.8577 28.1875 29.5C31.4583 29.1354 34.8958 27.8958 34.8958 22.2083C34.8955 20.754 34.3361 19.3554 33.3333 18.3021C33.8082 17.0297 33.7746 15.6233 33.2396 14.375C33.2396 14.375 32.0104 14.0104 29.1666 15.9167C26.7792 15.2696 24.2625 15.2696 21.875 15.9167C19.0312 14.0104 17.8021 14.375 17.8021 14.375C17.267 15.6233 17.2335 17.0297 17.7083 18.3021C16.698 19.3632 16.138 20.7744 16.1458 22.2396C16.1458 27.8854 19.5833 29.125 22.8541 29.5312C22.5114 29.8854 22.2471 30.3077 22.0784 30.7707C21.9097 31.2338 21.8404 31.7272 21.875 32.2187V36.25M21.875 33.125C16.6666 34.6875 16.6666 30.5208 14.5833 30L21.875 33.125Z" stroke="#F8F8F8" stroke-width="2" stroke-linecap="round" stroke-linejoin="round"/>
</g>
<defs>
<clipPath id="clip0_4_40">
<rect width="25" height="25" fill="white" transform="translate(12.5 13.3333)"/>
</clipPath>
</defs>
</svg>
