<svg width="50" height="50" viewBox="0 0 50 50" fill="none" xmlns="http://www.w3.org/2000/svg">
<circle cx="25" cy="25" r="25" fill="white" fill-opacity="0.21"/>
<g clip-path="url(#clip0_4_65)">
<path d="M36.4584 16.4583C35.4608 17.162 34.3564 17.7001 33.1875 18.0521C32.5602 17.3307 31.7264 16.8195 30.799 16.5874C29.8716 16.3554 28.8953 16.4137 28.0022 16.7546C27.109 17.0955 26.3421 17.7025 25.8052 18.4935C25.2683 19.2844 24.9872 20.2212 25 21.1771V22.2188C23.1694 22.2662 21.3555 21.8602 19.7198 21.0369C18.0841 20.2136 16.6774 18.9986 15.625 17.5C15.625 17.5 11.4584 26.875 20.8334 31.0417C18.6881 32.4979 16.1325 33.2281 13.5417 33.125C22.9167 38.3333 34.375 33.125 34.375 21.1458C34.3741 20.8557 34.3462 20.5662 34.2917 20.2813C35.3548 19.2328 36.105 17.9091 36.4584 16.4583V16.4583Z" stroke="#F8F8F8" stroke-width="2" stroke-linecap="round" stroke-linejoin="round"/>
</g>
<defs>
<clipPath id="clip0_4_65">
<rect width="25" height="25" fill="white" transform="translate(12.5 13.3333)"/>
</clipPath>
</defs>
</svg>
